<svg width="24" height="24" viewBox="0 0 24 24" fill="none" xmlns="http://www.w3.org/2000/svg">
<path fill-rule="evenodd" clip-rule="evenodd" d="M3 2H21C21.5523 2 22 2.44771 22 3V21C22 21.5523 21.5523 22 21 22H3C2.44772 22 2 21.5523 2 21V3C2 2.44772 2.44771 2 3 2ZM1 3C1 1.89543 1.89543 1 3 1H21C22.1046 1 23 1.89543 23 3V21C23 22.1046 22.1046 23 21 23H3C1.89543 23 1 22.1046 1 21V3ZM6.5 5C6.5 4.72386 6.27614 4.5 6 4.5C5.72386 4.5 5.5 4.72386 5.5 5V20C5.5 20.2761 5.72386 20.5 6 20.5C6.27614 20.5 6.5 20.2761 6.5 20V5ZM12 4.5C12.2761 4.5 12.5 4.72386 12.5 5V20C12.5 20.2761 12.2761 20.5 12 20.5C11.7239 20.5 11.5 20.2761 11.5 20V5C11.5 4.72386 11.7239 4.5 12 4.5ZM18.5 5C18.5 4.72386 18.2761 4.5 18 4.5C17.7239 4.5 17.5 4.72386 17.5 5V20C17.5 20.2761 17.7239 20.5 18 20.5C18.2761 20.5 18.5 20.2761 18.5 20V5Z" fill="#5C5A99"/>
</svg>
