<svg width="104" height="105" viewBox="0 0 104 105" fill="none" xmlns="http://www.w3.org/2000/svg">
<path d="M101.492 51C99.3361 52.32 97.2026 54.9653 95.9998 58.0243C94.797 54.9653 92.6639 52.32 90.5073 51C92.6636 49.68 94.797 47.0346 95.9998 43.9756C97.2026 47.0346 99.3358 49.68 101.492 51Z" fill="#605E5B"/>
<path d="M53.4923 97C51.3361 98.32 49.2026 100.965 47.9998 104.024C46.797 100.965 44.6639 98.32 42.5073 97C44.6636 95.68 46.797 93.0346 47.9998 89.9756C49.2026 93.0346 51.3358 95.68 53.4923 97Z" fill="#605E5B"/>
<path d="M26.4923 24C24.3361 25.32 22.2026 27.9653 20.9998 31.0243C19.797 27.9653 17.6639 25.32 15.5073 24C17.6636 22.68 19.797 20.0346 20.9998 16.9756C22.2026 20.0346 24.3358 22.68 26.4923 24Z" fill="#605E5B"/>
<path d="M88.2862 75.3563L82.6612 80.21L84.3749 87.4688C84.4695 87.8628 84.4451 88.2761 84.3049 88.6563C84.1648 89.0365 83.9151 89.3666 83.5873 89.605C83.2596 89.8433 82.8686 89.9792 82.4637 89.9955C82.0588 90.0117 81.6582 89.9076 81.3124 89.6963L74.9999 85.8113L68.6837 89.6963C68.338 89.9064 67.9378 90.0095 67.5336 89.9927C67.1294 89.9758 66.7392 89.8398 66.4122 89.6016C66.0851 89.3635 65.8359 89.0339 65.6958 88.6543C65.5557 88.2748 65.5311 87.8623 65.6249 87.4688L67.3449 80.21L61.7199 75.3563C61.414 75.0919 61.1928 74.7433 61.0839 74.354C60.975 73.9646 60.9832 73.5518 61.1074 73.1671C61.2317 72.7824 61.4666 72.4428 61.7827 72.1908C62.0988 71.9388 62.4822 71.7855 62.8849 71.75L70.2599 71.155L73.1049 64.27C73.2589 63.8948 73.521 63.5739 73.8579 63.348C74.1948 63.1221 74.5912 63.0015 74.9968 63.0015C75.4024 63.0015 75.7988 63.1221 76.1357 63.348C76.4726 63.5739 76.7347 63.8948 76.8887 64.27L79.7324 71.155L87.1074 71.75C87.5109 71.7842 87.8954 71.9366 88.2127 72.1883C88.53 72.44 88.7659 72.7797 88.891 73.1649C89.016 73.55 89.0246 73.9636 88.9157 74.3536C88.8068 74.7437 88.5852 75.0929 88.2787 75.3575L88.2862 75.3563Z" fill="#5A6799"/>
<path d="M9.40016 73.3335L8.21683 74.5168C7.90641 74.8291 7.73218 75.2515 7.73218 75.6918C7.73218 76.1321 7.90641 76.5546 8.21683 76.8668C8.5291 77.1773 8.95152 77.3515 9.39183 77.3515C9.83214 77.3515 10.2546 77.1773 10.5668 76.8668L11.7502 75.6835C12.0232 75.3647 12.1659 74.9545 12.1497 74.5351C12.1335 74.1156 11.9596 73.7177 11.6628 73.4209C11.3659 73.1241 10.968 72.9502 10.5486 72.934C10.1291 72.9178 9.719 73.0605 9.40016 73.3335ZM8.3335 65.0002C8.3335 64.5581 8.1579 64.1342 7.84534 63.8217C7.53278 63.5091 7.10886 63.3335 6.66683 63.3335H5.00016C4.55814 63.3335 4.13421 63.5091 3.82165 63.8217C3.50909 64.1342 3.3335 64.5581 3.3335 65.0002C3.3335 65.4422 3.50909 65.8661 3.82165 66.1787C4.13421 66.4912 4.55814 66.6668 5.00016 66.6668H6.66683C7.10886 66.6668 7.53278 66.4912 7.84534 66.1787C8.1579 65.8661 8.3335 65.4422 8.3335 65.0002ZM20.0002 53.3335C20.4422 53.3335 20.8661 53.1579 21.1787 52.8453C21.4912 52.5328 21.6668 52.1089 21.6668 51.6668V50.0002C21.6668 49.5581 21.4912 49.1342 21.1787 48.8217C20.8661 48.5091 20.4422 48.3335 20.0002 48.3335C19.5581 48.3335 19.1342 48.5091 18.8217 48.8217C18.5091 49.1342 18.3335 49.5581 18.3335 50.0002V51.6668C18.3335 52.1089 18.5091 52.5328 18.8217 52.8453C19.1342 53.1579 19.5581 53.3335 20.0002 53.3335ZM9.40016 56.7502C9.7106 57.0581 10.1296 57.2317 10.5668 57.2335C10.7862 57.2348 11.0036 57.1927 11.2067 57.1098C11.4097 57.0268 11.5944 56.9046 11.7502 56.7502C12.0606 56.4379 12.2348 56.0155 12.2348 55.5752C12.2348 55.1349 12.0606 54.7124 11.7502 54.4002L10.5668 53.2168C10.248 52.9438 9.83787 52.8011 9.41841 52.8173C8.99895 52.8335 8.60105 53.0074 8.30422 53.3042C8.0074 53.601 7.83351 53.9989 7.81731 54.4184C7.80111 54.8379 7.94379 55.248 8.21683 55.5668L9.40016 56.7502ZM29.4002 57.2335C29.8374 57.2317 30.2564 57.0581 30.5668 56.7502L31.7502 55.5668C31.9246 55.4174 32.0663 55.2336 32.1664 55.0268C32.2664 54.82 32.3226 54.5948 32.3315 54.3653C32.3404 54.1357 32.3017 53.9068 32.2179 53.693C32.1341 53.4791 32.007 53.2848 31.8446 53.1224C31.6822 52.96 31.4879 52.8329 31.274 52.7491C31.0602 52.6653 30.8313 52.6266 30.6017 52.6355C30.3722 52.6444 30.147 52.7006 29.9402 52.8006C29.7334 52.9007 29.5496 53.0424 29.4002 53.2168L28.3335 54.4002C28.0231 54.7124 27.8488 55.1349 27.8488 55.5752C27.8488 56.0155 28.0231 56.4379 28.3335 56.7502C28.6273 57.0424 29.0195 57.2148 29.4335 57.2335H29.4002ZM35.0002 63.3335H33.3335C32.8915 63.3335 32.4675 63.5091 32.155 63.8217C31.8424 64.1342 31.6668 64.5581 31.6668 65.0002C31.6668 65.4422 31.8424 65.8661 32.155 66.1787C32.4675 66.4912 32.8915 66.6668 33.3335 66.6668H35.0002C35.4422 66.6668 35.8661 66.4912 36.1787 66.1787C36.4912 65.8661 36.6668 65.4422 36.6668 65.0002C36.6668 64.5581 36.4912 64.1342 36.1787 63.8217C35.8661 63.5091 35.4422 63.3335 35.0002 63.3335ZM20.0002 76.6668C19.5581 76.6668 19.1342 76.8424 18.8217 77.155C18.5091 77.4675 18.3335 77.8915 18.3335 78.3335V80.0002C18.3335 80.4422 18.5091 80.8661 18.8217 81.1787C19.1342 81.4912 19.5581 81.6668 20.0002 81.6668C20.4422 81.6668 20.8661 81.4912 21.1787 81.1787C21.4912 80.8661 21.6668 80.4422 21.6668 80.0002V78.3335C21.6668 77.8915 21.4912 77.4675 21.1787 77.155C20.8661 76.8424 20.4422 76.6668 20.0002 76.6668ZM30.6002 73.3335C30.2835 73.1574 29.9181 73.0892 29.5593 73.1394C29.2004 73.1896 28.8677 73.3553 28.6115 73.6115C28.3553 73.8677 28.1896 74.2004 28.1394 74.5593C28.0892 74.9181 28.1574 75.2835 28.3335 75.6002L29.5168 76.7835C29.8291 77.0939 30.2515 77.2682 30.6918 77.2682C31.1321 77.2682 31.5546 77.0939 31.8668 76.7835C32.1773 76.4712 32.3515 76.0488 32.3515 75.6085C32.3515 75.1682 32.1773 74.7458 31.8668 74.4335L30.6002 73.3335ZM20.0002 55.8335C18.1872 55.8335 16.4149 56.3711 14.9074 57.3784C13.4 58.3856 12.2251 59.8172 11.5313 61.4922C10.8375 63.1672 10.6559 65.0103 11.0096 66.7885C11.3633 68.5667 12.2364 70.2 13.5184 71.482C14.8003 72.764 16.4337 73.637 18.2118 73.9907C19.99 74.3444 21.8331 74.1629 23.5081 73.4691C25.1831 72.7753 26.6147 71.6003 27.622 70.0929C28.6292 68.5854 29.1668 66.8132 29.1668 65.0002C29.1624 62.5704 28.1952 60.2413 26.4771 58.5232C24.759 56.8051 22.43 55.8379 20.0002 55.8335ZM20.0002 70.8335C18.8464 70.8335 17.7186 70.4914 16.7593 69.8504C15.8 69.2094 15.0524 68.2984 14.6109 67.2325C14.1694 66.1666 14.0538 64.9937 14.2789 63.8621C14.504 62.7306 15.0596 61.6912 15.8754 60.8754C16.6912 60.0596 17.7306 59.504 18.8621 59.2789C19.9937 59.0538 21.1666 59.1694 22.2325 59.6109C23.2984 60.0524 24.2094 60.8 24.8504 61.7593C25.4914 62.7186 25.8335 63.8464 25.8335 65.0002C25.8335 66.5473 25.2189 68.031 24.125 69.125C23.031 70.2189 21.5473 70.8335 20.0002 70.8335Z" fill="#5A6799"/>
<mask id="mask0_513_423" style="mask-type:luminance" maskUnits="userSpaceOnUse" x="43" y="3" width="42" height="42">
<path d="M64 44C66.627 44.0034 69.2287 43.4876 71.6556 42.4823C74.0826 41.477 76.2869 40.002 78.142 38.142C80.002 36.2869 81.477 34.0826 82.4823 31.6556C83.4876 29.2287 84.0034 26.627 84 24C84.0034 21.3731 83.4876 18.7714 82.4823 16.3444C81.4769 13.9175 80.0019 11.7131 78.142 9.85802C76.2869 7.99804 74.0826 6.52302 71.6556 5.5177C69.2287 4.51239 66.627 3.99661 64 4.00002C61.3731 3.99667 58.7714 4.51247 56.3444 5.51778C53.9175 6.52309 51.7131 7.99809 49.858 9.85802C47.9981 11.7131 46.5231 13.9175 45.5178 16.3444C44.5125 18.7714 43.9967 21.3731 44 24C43.9966 26.627 44.5124 29.2287 45.5177 31.6556C46.523 34.0826 47.998 36.2869 49.858 38.142C51.7131 40.0019 53.9175 41.4769 56.3444 42.4823C58.7714 43.4876 61.3731 44.0034 64 44Z" fill="white" stroke="white" stroke-width="2" stroke-linejoin="round"/>
<path d="M56 24L62 30L74 18" stroke="black" stroke-width="2" stroke-linecap="round" stroke-linejoin="round"/>
</mask>
<g mask="url(#mask0_513_423)">
<path d="M40 0H88V48H40V0Z" fill="#5A6799"/>
</g>
</svg>
